<svg width="24" height="24" viewBox="0 0 24 24" fill="none" xmlns="http://www.w3.org/2000/svg">
<path d="M9.28308 7.87385C9.29539 7.85539 9.3077 7.83077 9.32 7.81231C9.67693 7.20923 10.3354 6.80923 11.0862 6.80923C11.6523 6.80923 12.1631 7.03693 12.5385 7.41231C12.9077 7.78154 13.1415 8.29231 13.1415 8.86462V13.5477" stroke="#2989FB" stroke-width="0.5" stroke-linecap="round" stroke-linejoin="round"/>
<path d="M13.2708 13.7077L16.4892 13.72C17.2462 13.7262 17.8739 14.3169 17.9169 15.0739L18.4462 21.0308C18.4462 21.0308 19.9416 21.6769 19.5846 22.6308H16.2369L15.5108 16.2923L14.3723 16.2862" stroke="#1B2120" stroke-width="0.5" stroke-linecap="round" stroke-linejoin="round"/>
<path d="M11.3631 5.15385H12.6861C12.9015 5.15385 13.0738 4.98154 13.0738 4.76615V2.66769C13.0738 1.95385 12.4892 1.36923 11.7754 1.36923H11.3631C10.6492 1.36923 10.0646 1.95385 10.0646 2.66769V3.86154C10.0708 4.56923 10.6492 5.15385 11.3631 5.15385Z" stroke="#1B2120" stroke-width="0.5" stroke-linecap="round" stroke-linejoin="round"/>
<path d="M7.73231 11.5785V6.80923H4.79077" stroke="#1B2120" stroke-width="0.5" stroke-linecap="round" stroke-linejoin="round"/>
<path d="M7.73231 11.6892C7.72615 11.6892 7.72 11.6892 7.72 11.6954C5.23385 12.2369 3.36923 14.4523 3.36923 17.0985C3.36923 20.1508 5.84308 22.6308 8.90154 22.6308C11.96 22.6308 14.4338 20.1508 14.4338 17.0985C14.4338 16.8215 14.4154 16.5508 14.3723 16.2862C14.2308 15.3262 13.8431 14.44 13.2708 13.7077C13.2277 13.6523 13.1785 13.5908 13.1354 13.5354C12.3231 12.5692 11.1846 11.8862 9.89231 11.6523" stroke="#1B2120" stroke-width="0.5" stroke-linecap="round" stroke-linejoin="round"/>
<path d="M9.75693 13.7077C11.2708 14.0892 12.3969 15.4615 12.3969 17.0985C12.3969 19.0308 10.8339 20.5939 8.90154 20.5939C6.96924 20.5939 5.40616 19.0308 5.40616 17.0985C5.40616 15.5723 6.38462 14.2739 7.75077 13.8" stroke="#1B2120" stroke-width="0.5" stroke-linecap="round" stroke-linejoin="round"/>
<path d="M9.28307 7.87384L9.11692 8.26769L7.7323 11.5723V12.7415L7.74461 13.7938L7.76307 15.1415C8.03384 15.8615 8.55076 16.0769 8.98768 16.1077C9.41845 16.1385 9.78768 15.9969 9.78768 15.9969L9.75692 13.7015L9.7323 12.0154L9.88615 11.6461L11.0246 8.9323" stroke="#2989FB" stroke-width="0.5" stroke-linecap="round" stroke-linejoin="round"/>
</svg>
