<svg width="24" height="24" viewBox="0 0 24 24" fill="none" xmlns="http://www.w3.org/2000/svg">
<path d="M9.28308 7.87382C9.29539 7.85536 9.3077 7.83074 9.32 7.81228C9.67693 7.2092 10.3354 6.8092 11.0862 6.8092C11.6523 6.8092 12.1631 7.0369 12.5385 7.41228C12.9077 7.78151 13.1415 8.29228 13.1415 8.86459V13.5477" stroke="#2989FB" stroke-width="0.5" stroke-linecap="round" stroke-linejoin="round"/>
<path d="M13.2708 13.7076L16.4892 13.7199C17.2461 13.7261 17.8738 14.3169 17.9169 15.0738L18.4461 21.0307C18.4461 21.0307 19.9415 21.6769 19.5846 22.6307H16.2369L15.5108 16.2923L14.3723 16.2861" stroke="#1B2120" stroke-width="0.5" stroke-linecap="round" stroke-linejoin="round"/>
<path d="M11.363 5.15388H12.6861C12.9015 5.15388 13.0738 4.98157 13.0738 4.76619V2.66772C13.0738 1.95388 12.4892 1.36926 11.7753 1.36926H11.363C10.6492 1.36926 10.0646 1.95388 10.0646 2.66772V3.86157C10.0707 4.56926 10.6492 5.15388 11.363 5.15388Z" stroke="#1B2120" stroke-width="0.5" stroke-linecap="round" stroke-linejoin="round"/>
<path d="M7.73231 11.5784V6.8092H4.79077" stroke="#1B2120" stroke-width="0.5" stroke-linecap="round" stroke-linejoin="round"/>
<path d="M7.73234 11.6893C7.72619 11.6893 7.72003 11.6893 7.72003 11.6954C5.23388 12.237 3.36926 14.4523 3.36926 17.0985C3.36926 20.1508 5.84311 22.6308 8.90157 22.6308C11.96 22.6308 14.4339 20.1508 14.4339 17.0985C14.4339 16.8216 14.4154 16.5508 14.3723 16.2862C14.2308 15.3262 13.8431 14.44 13.2708 13.7077C13.2277 13.6523 13.1785 13.5908 13.1354 13.5354C12.3231 12.5693 11.1846 11.8862 9.89234 11.6523" stroke="#1B2120" stroke-width="0.5" stroke-linecap="round" stroke-linejoin="round"/>
<path d="M9.7569 13.7076C11.2707 14.0892 12.3969 15.4615 12.3969 17.0984C12.3969 19.0307 10.8338 20.5938 8.90151 20.5938C6.9692 20.5938 5.40613 19.0307 5.40613 17.0984C5.40613 15.5723 6.38459 14.2738 7.75074 13.7999" stroke="#1B2120" stroke-width="0.5" stroke-linecap="round" stroke-linejoin="round"/>
<path d="M9.28307 7.8739L9.11692 8.26775L7.7323 11.5724V12.7416L7.74461 13.7939L7.76307 15.1416C8.03384 15.8616 8.55076 16.077 8.98768 16.1077C9.41845 16.1385 9.78768 15.997 9.78768 15.997L9.75692 13.7016L9.7323 12.0154L9.88615 11.6462L11.0246 8.93236" stroke="#2989FB" stroke-width="0.5" stroke-linecap="round" stroke-linejoin="round"/>
</svg>
