<svg width="24" height="24" viewBox="0 0 24 24" fill="none" xmlns="http://www.w3.org/2000/svg">
<path d="M9.77664 3.29924C8.44056 8.23763 12.2887 9.20094 14.2716 8.66016C12.7646 8.31406 10.2518 7.10632 13.2146 3.08365" stroke="#1B2120" stroke-width="0.5" stroke-linecap="round" stroke-linejoin="round"/>
<path d="M3.34784 11.6265V11.6438C3.35 13.6728 4.06527 15.6369 5.36891 17.1922C6.67255 18.7475 8.48091 19.7951 10.4782 20.1521" stroke="#1B2120" stroke-width="0.5" stroke-linecap="round" stroke-linejoin="round"/>
<path d="M13.5239 20.1492C15.5226 19.7937 17.3331 18.7468 18.6382 17.1915C19.9433 15.6362 20.6593 13.6714 20.6621 11.6409V11.6265" stroke="#1B2120" stroke-width="0.5" stroke-linecap="round" stroke-linejoin="round"/>
<path d="M20.6607 11.6582V11.6416C20.6607 11.4268 20.6528 11.2134 20.6362 11.0021C20.4711 8.82527 19.4897 6.79194 17.889 5.30804C16.2883 3.82415 14.1858 3 12.0025 3C9.81918 3 7.71735 3.82415 6.11664 5.30804C4.51594 6.79194 3.5346 8.82527 3.36949 11.0021C3.35362 11.2134 3.34569 11.4268 3.34497 11.6416V11.6582" stroke="#1B2120" stroke-width="0.5" stroke-linecap="round" stroke-linejoin="round"/>
<path d="M20.6362 11.0021L21.5015 11.0259C21.9175 11.054 22.3054 11.2422 22.5852 11.5508C22.8649 11.8601 23.0135 12.2653 22.9991 12.6814C22.9854 13.0974 22.8101 13.4925 22.5109 13.7824C22.2117 14.0723 21.8115 14.2345 21.3947 14.2352H20.2577" stroke="#1B2120" stroke-width="0.5" stroke-linecap="round" stroke-linejoin="round"/>
<path d="M3.36948 11.0021L2.49919 11.0259C2.08315 11.054 1.69523 11.2422 1.41547 11.5508C1.1357 11.8601 0.98717 12.2653 1.00087 12.6814C1.01457 13.0974 1.18978 13.4925 1.48901 13.7824C1.78824 14.0723 2.18842 14.2345 2.60518 14.2352H3.74731" stroke="#1B2120" stroke-width="0.5" stroke-linecap="round" stroke-linejoin="round"/>
<path d="M7.20181 11.6986C7.30636 11.5183 7.45706 11.3691 7.63732 11.2653C7.81758 11.1614 8.02308 11.1066 8.23146 11.1066C8.43984 11.1066 8.64461 11.1614 8.82559 11.2653C9.00585 11.3691 9.15655 11.5191 9.2611 11.6986" stroke="#1B2120" stroke-width="0.5" stroke-linecap="round" stroke-linejoin="round"/>
<path d="M14.7403 11.6986C14.8448 11.5176 14.9948 11.3677 15.1758 11.2631C15.3568 11.1586 15.5622 11.1038 15.7706 11.1038C15.979 11.1038 16.1845 11.1586 16.3655 11.2631C16.5465 11.3677 16.6964 11.5176 16.801 11.6986" stroke="#1B2120" stroke-width="0.5" stroke-linecap="round" stroke-linejoin="round"/>
<path d="M9.9814 18.4425C9.50552 18.3617 9.07722 18.1043 8.78232 17.7222C8.48669 17.34 8.34609 16.8605 8.38791 16.3796C8.42973 15.8987 8.65037 15.4509 9.00728 15.125C9.36347 14.7991 9.82999 14.6195 10.3124 14.621C10.8229 14.9217 11.4047 15.0803 11.9981 15.0803C12.5916 15.0803 13.1727 14.9217 13.6839 14.621H13.6875C14.1721 14.6167 14.64 14.7955 14.9984 15.1214C15.3567 15.4473 15.5788 15.8965 15.6206 16.3789C15.6625 16.8613 15.5204 17.3415 15.2234 17.7243C14.9263 18.1072 14.4958 18.3632 14.0185 18.4425" stroke="#2989FB" stroke-width="0.5" stroke-linecap="round" stroke-linejoin="round"/>
<path d="M12.0003 20.8291C13.1309 20.8291 14.0473 19.9127 14.0473 18.7821C14.0473 17.6515 13.1309 16.7351 12.0003 16.7351C10.8697 16.7351 9.95328 17.6515 9.95328 18.7821C9.95328 19.9127 10.8697 20.8291 12.0003 20.8291Z" stroke="#2989FB" stroke-width="0.5" stroke-linecap="round" stroke-linejoin="round"/>
</svg>
