<svg width="24" height="24" viewBox="0 0 24 24" fill="none" xmlns="http://www.w3.org/2000/svg">
<path d="M9.77661 3.29921C8.44053 8.2376 12.2887 9.20091 14.2716 8.66013C12.7646 8.31403 10.2518 7.10629 13.2145 3.08362" stroke="#1B2120" stroke-width="0.5" stroke-linecap="round" stroke-linejoin="round"/>
<path d="M3.3479 11.6265V11.6438C3.35006 13.6728 4.06533 15.6369 5.36897 17.1922C6.67261 18.7474 8.48098 19.7951 10.4783 20.152" stroke="#1B2120" stroke-width="0.5" stroke-linecap="round" stroke-linejoin="round"/>
<path d="M13.5239 20.1491C15.5226 19.7937 17.3332 18.7467 18.6383 17.1914C19.9433 15.6362 20.6593 13.6713 20.6622 11.6409V11.6265" stroke="#1B2120" stroke-width="0.5" stroke-linecap="round" stroke-linejoin="round"/>
<path d="M20.6607 11.6582V11.6416C20.6607 11.4268 20.6528 11.2134 20.6362 11.0021C20.4711 8.82527 19.4897 6.79194 17.889 5.30804C16.2883 3.82415 14.1858 3 12.0025 3C9.81918 3 7.71735 3.82415 6.11664 5.30804C4.51594 6.79194 3.5346 8.82527 3.36949 11.0021C3.35362 11.2134 3.34569 11.4268 3.34497 11.6416V11.6582" stroke="#1B2120" stroke-width="0.5" stroke-linecap="round" stroke-linejoin="round"/>
<path d="M20.6362 11.0021L21.5015 11.0259C21.9175 11.054 22.3054 11.2422 22.5852 11.5508C22.865 11.8601 23.0135 12.2653 22.9991 12.6814C22.9854 13.0974 22.8102 13.4925 22.5109 13.7824C22.2117 14.0723 21.8115 14.2345 21.3948 14.2352H20.2577" stroke="#1B2120" stroke-width="0.5" stroke-linecap="round" stroke-linejoin="round"/>
<path d="M3.36948 11.0021L2.49919 11.0259C2.08315 11.054 1.69523 11.2422 1.41547 11.5508C1.1357 11.8601 0.98717 12.2653 1.00087 12.6814C1.01457 13.0974 1.18978 13.4925 1.48901 13.7824C1.78824 14.0723 2.18842 14.2345 2.60518 14.2352H3.74731" stroke="#1B2120" stroke-width="0.5" stroke-linecap="round" stroke-linejoin="round"/>
<path d="M7.20178 11.6987C7.30633 11.5184 7.45703 11.3691 7.63729 11.2653C7.81755 11.1615 8.02305 11.1067 8.23143 11.1067C8.43981 11.1067 8.64458 11.1615 8.82556 11.2653C9.00582 11.3691 9.15652 11.5191 9.26107 11.6987" stroke="#1B2120" stroke-width="0.5" stroke-linecap="round" stroke-linejoin="round"/>
<path d="M14.7402 11.6986C14.8448 11.5176 14.9948 11.3677 15.1757 11.2631C15.3567 11.1586 15.5622 11.1038 15.7706 11.1038C15.979 11.1038 16.1845 11.1586 16.3655 11.2631C16.5464 11.3677 16.6964 11.5176 16.801 11.6986" stroke="#1B2120" stroke-width="0.5" stroke-linecap="round" stroke-linejoin="round"/>
<path d="M9.98147 18.4424C9.50558 18.3617 9.07728 18.1043 8.78238 17.7221C8.48675 17.34 8.34615 16.8605 8.38797 16.3795C8.42979 15.8986 8.65043 15.4508 9.00734 15.1249C9.36354 14.799 9.83005 14.6195 10.3124 14.6209C10.8229 14.9216 11.4048 15.0802 11.9982 15.0802C12.5916 15.0802 13.1728 14.9216 13.684 14.6209H13.6876C14.1721 14.6166 14.6401 14.7954 14.9985 15.1213C15.3568 15.4472 15.5789 15.8964 15.6207 16.3788C15.6625 16.8612 15.5205 17.3414 15.2234 17.7243C14.9263 18.1071 14.4959 18.3631 14.0186 18.4424" stroke="#2989FB" stroke-width="0.5" stroke-linecap="round" stroke-linejoin="round"/>
<path d="M12.0003 20.8292C13.1309 20.8292 14.0473 19.9127 14.0473 18.7821C14.0473 17.6515 13.1309 16.7351 12.0003 16.7351C10.8697 16.7351 9.95325 17.6515 9.95325 18.7821C9.95325 19.9127 10.8697 20.8292 12.0003 20.8292Z" stroke="#2989FB" stroke-width="0.5" stroke-linecap="round" stroke-linejoin="round"/>
</svg>
