<svg width="25" height="24" viewBox="0 0 25 24" fill="none" xmlns="http://www.w3.org/2000/svg">
<path d="M3.53411 7.36144C3.2592 6.8616 3.62082 6.25 4.19127 6.25H8.86068C9.26416 6.25 9.64283 6.05524 9.8775 5.72703L12.3399 2.28311C12.639 1.86473 13.261 1.86473 13.5601 2.28311L16.0225 5.72703C16.2572 6.05524 16.6358 6.25 17.0393 6.25H21.7087C22.2792 6.25 22.6408 6.8616 22.3659 7.36144L20.146 11.3976C19.9397 11.7727 19.9397 12.2273 20.146 12.6024L22.3659 16.6386C22.6408 17.1384 22.2792 17.75 21.7087 17.75H17.0393C16.6358 17.75 16.2572 17.9448 16.0225 18.273L13.5601 21.7169C13.261 22.1353 12.639 22.1353 12.3399 21.7169L9.8775 18.273C9.64283 17.9448 9.26416 17.75 8.86068 17.75H4.19127C3.62082 17.75 3.2592 17.1384 3.53411 16.6386L5.754 12.6024C5.96031 12.2273 5.96031 11.7727 5.754 11.3976L3.53411 7.36144Z" stroke="#1B2120" stroke-width="0.5"/>
<path d="M5.52845 8.45072C5.25517 7.95092 5.61687 7.34091 6.18651 7.34091H9.57603C9.98074 7.34091 10.3604 7.14498 10.5949 6.81512L12.3887 4.2915C12.6877 3.87087 13.3123 3.87087 13.6113 4.2915L15.4051 6.81512C15.6396 7.14498 16.0193 7.34091 16.424 7.34091H19.8135C20.3831 7.34091 20.7448 7.95092 20.4715 8.45072L18.8588 11.4003C18.6544 11.774 18.6544 12.226 18.8588 12.5997L20.4715 15.5493C20.7448 16.0491 20.3831 16.6591 19.8135 16.6591H16.424C16.0193 16.6591 15.6396 16.855 15.4051 17.1849L13.6113 19.7085C13.3123 20.1291 12.6877 20.1291 12.3887 19.7085L10.5949 17.1849C10.3604 16.855 9.98074 16.6591 9.57603 16.6591H6.18651C5.61688 16.6591 5.25517 16.0491 5.52845 15.5493L7.14124 12.5997C7.34557 12.226 7.34557 11.774 7.14124 11.4003L5.52845 8.45072Z" stroke="#2989FB" stroke-width="0.5"/>
</svg>
