<svg width="24" height="24" viewBox="0 0 24 24" fill="none" xmlns="http://www.w3.org/2000/svg">
<path d="M3.03411 7.36144C2.7592 6.8616 3.12082 6.25 3.69127 6.25H8.36068C8.76416 6.25 9.14283 6.05524 9.3775 5.72703L11.8399 2.28311C12.139 1.86473 12.761 1.86473 13.0601 2.28311L15.5225 5.72703C15.7572 6.05524 16.1358 6.25 16.5393 6.25H21.2087C21.7792 6.25 22.1408 6.8616 21.8659 7.36144L19.646 11.3976C19.4397 11.7727 19.4397 12.2273 19.646 12.6024L21.8659 16.6386C22.1408 17.1384 21.7792 17.75 21.2087 17.75H16.5393C16.1358 17.75 15.7572 17.9448 15.5225 18.273L13.0601 21.7169C12.761 22.1353 12.139 22.1353 11.8399 21.7169L9.3775 18.273C9.14283 17.9448 8.76416 17.75 8.36068 17.75H3.69127C3.12082 17.75 2.7592 17.1384 3.03411 16.6386L5.254 12.6024C5.46031 12.2273 5.46031 11.7727 5.254 11.3976L3.03411 7.36144Z" stroke="#1B2120" stroke-width="0.5"/>
<path d="M5.02845 8.45072C4.75517 7.95092 5.11687 7.34091 5.68651 7.34091H9.07603C9.48074 7.34091 9.8604 7.14498 10.0949 6.81512L11.8887 4.2915C12.1877 3.87087 12.8123 3.87087 13.1113 4.2915L14.9051 6.81512C15.1396 7.14498 15.5193 7.34091 15.924 7.34091H19.3135C19.8831 7.34091 20.2448 7.95092 19.9715 8.45072L18.3588 11.4003C18.1544 11.774 18.1544 12.226 18.3588 12.5997L19.9715 15.5493C20.2448 16.0491 19.8831 16.6591 19.3135 16.6591H15.924C15.5193 16.6591 15.1396 16.855 14.9051 17.1849L13.1113 19.7085C12.8123 20.1291 12.1877 20.1291 11.8887 19.7085L10.0949 17.1849C9.8604 16.855 9.48074 16.6591 9.07603 16.6591H5.68651C5.11688 16.6591 4.75517 16.0491 5.02845 15.5493L6.64124 12.5997C6.84557 12.226 6.84557 11.774 6.64124 11.4003L5.02845 8.45072Z" stroke="#2989FB" stroke-width="0.5"/>
</svg>
