<svg width="24" height="24" viewBox="0 0 24 24" fill="none" xmlns="http://www.w3.org/2000/svg">
<path fill-rule="evenodd" clip-rule="evenodd" d="M3 0H7.88087C9.37382 0 10.6396 1.09779 10.8507 2.57574L11.0776 4.16379H20.7241C22.5191 4.16379 23.9741 5.61887 23.9741 7.41379V20.7241C23.9741 22.5191 22.5191 23.9741 20.7241 23.9741H11.7712C10.1232 23.9741 8.73602 22.7406 8.54346 21.1039L8.33245 19.3103H3C1.34314 19.3103 0 17.9672 0 16.3103V3C0 1.34314 1.34315 0 3 0ZM7.88087 0.5H3C1.61929 0.5 0.5 1.61929 0.5 3V16.3103C0.5 17.6911 1.61929 18.8103 3 18.8103H12.0884C12.3926 18.8103 12.6264 18.5408 12.5833 18.2396L10.3557 2.64645C10.1798 1.41482 9.125 0.5 7.88087 0.5ZM13.0783 18.1689L11.149 4.66379H20.7241C22.2429 4.66379 23.4741 5.89501 23.4741 7.41379V20.7241C23.4741 22.2429 22.2429 23.4741 20.7241 23.4741H11.7712C11.2222 23.4741 10.7074 23.3124 10.275 23.0317L12.712 19.1325C12.7247 19.1121 12.7342 19.0906 12.7405 19.0686C12.9884 18.8549 13.1289 18.5229 13.0783 18.1689ZM12.0112 19.3103H8.8359L9.04003 21.0455C9.11789 21.7073 9.42658 22.2912 9.87988 22.7205L12.0112 19.3103Z" fill="#1B2120"/>
<path d="M3.58621 12.9655L4.4138 9.65519M8.55173 12.9655L7.72414 9.65519M4.4138 9.65519L5.08887 6.05481C5.1773 5.58317 5.58911 5.24139 6.06897 5.24139V5.24139C6.54883 5.24139 6.96064 5.58317 7.04907 6.05481L7.72414 9.65519M4.4138 9.65519H7.72414" stroke="#1B2120" stroke-width="0.5" stroke-linecap="round"/>
<path d="M14.069 11.0345H15.0345M21.2414 11.0345H20.2759M17.6552 11.0345V9.3793M17.6552 11.0345H20.2759M17.6552 11.0345H15.0345M20.2759 11.0345L19.5579 12.2249C18.5992 13.8144 17.4239 15.2626 16.0659 16.528L15.4483 17.1034M15.0345 11.0345L16.2462 12.8877C16.9996 14.0399 17.87 15.1113 18.8434 16.0848L19.8621 17.1034" stroke="#1B2120" stroke-width="0.5" stroke-linecap="round"/>
<path d="M3 0.25H7.88087C9.24941 0.25 10.4097 1.25631 10.6032 2.61109L12.8308 18.2043C12.8954 18.6561 12.5448 19.0603 12.0884 19.0603H3C1.48121 19.0603 0.25 17.8291 0.25 16.3103V3C0.25 1.48121 1.48122 0.25 3 0.25Z" stroke="#2989FB" stroke-width="0.5"/>
</svg>
