<svg width="24" height="24" viewBox="0 0 24 24" fill="none" xmlns="http://www.w3.org/2000/svg">
<path fill-rule="evenodd" clip-rule="evenodd" d="M7.88087 0.5H3C1.61929 0.5 0.5 1.61929 0.5 3V16.3103C0.5 17.6911 1.61929 18.8103 3 18.8103H12.0884C12.3926 18.8103 12.6264 18.5408 12.5833 18.2396L10.3557 2.64645C10.1798 1.41482 9.125 0.5 7.88087 0.5ZM3 0H7.88087C9.37382 0 10.6396 1.09779 10.8507 2.57574L11.0776 4.16379H20.7241C22.5191 4.16379 23.9741 5.61887 23.9741 7.41379V20.7241C23.9741 22.5191 22.5191 23.9741 20.7241 23.9741H11.7712C10.1232 23.9741 8.73602 22.7406 8.54346 21.1039L8.33245 19.3103H3C1.34314 19.3103 0 17.9672 0 16.3103V3C0 1.34314 1.34315 0 3 0ZM13.0783 18.1689L11.149 4.66379H20.7241C22.2429 4.66379 23.4741 5.89501 23.4741 7.41379V20.7241C23.4741 22.2429 22.2429 23.4741 20.7241 23.4741H11.7712C11.2222 23.4741 10.7074 23.3124 10.275 23.0317L12.712 19.1325C12.7247 19.1121 12.7342 19.0906 12.7405 19.0686C12.9884 18.8549 13.1289 18.5229 13.0783 18.1689ZM12.0112 19.3103H8.8359L9.04003 21.0455C9.11789 21.7073 9.42658 22.2912 9.87988 22.7205L12.0112 19.3103Z" fill="#1B2120"/>
<path d="M3.58618 12.9655L4.41377 9.65513M8.5517 12.9655L7.72411 9.65513M4.41377 9.65513L5.08884 6.05475C5.17727 5.58311 5.58908 5.24133 6.06894 5.24133V5.24133C6.5488 5.24133 6.96061 5.58311 7.04904 6.05474L7.72411 9.65513M4.41377 9.65513H7.72411" stroke="#1B2120" stroke-width="0.5" stroke-linecap="round"/>
<path d="M14.0688 11.0344H15.0344M21.2413 11.0344H20.2757M17.6551 11.0344V9.37927M17.6551 11.0344H20.2757M17.6551 11.0344H15.0344M20.2757 11.0344L19.5577 12.2249C18.5991 13.8143 17.4238 15.2626 16.0658 16.5279L15.4482 17.1034M15.0344 11.0344L16.2461 12.8876C16.9995 14.0399 17.8698 15.1113 18.8433 16.0848L19.862 17.1034" stroke="#1B2120" stroke-width="0.5" stroke-linecap="round"/>
<path d="M3 0.25H7.88087C9.24941 0.25 10.4097 1.25631 10.6032 2.61109L12.8308 18.2043C12.8954 18.6561 12.5448 19.0603 12.0884 19.0603H3C1.48121 19.0603 0.25 17.8291 0.25 16.3103V3C0.25 1.48121 1.48122 0.25 3 0.25Z" stroke="#2989FB" stroke-width="0.5"/>
</svg>
