<svg width="24" height="24" viewBox="0 0 24 24" fill="none" xmlns="http://www.w3.org/2000/svg">
<g clip-path="url(#clip0_42_401)">
<path d="M2.93396 9.54541V21.5454" stroke="#1B2120" stroke-width="0.5" stroke-linecap="round" stroke-linejoin="round"/>
<path d="M21.038 9.54541V21.5454" stroke="#1B2120" stroke-width="0.5" stroke-linecap="round" stroke-linejoin="round"/>
<path d="M0 11.3255L12 3L24 11.3255" stroke="#2989FB" stroke-width="0.5" stroke-linecap="round" stroke-linejoin="round"/>
<path d="M0 10.3255L12 2L24 10.3255" stroke="#2989FB" stroke-width="0.5" stroke-linecap="round" stroke-linejoin="round"/>
<path d="M10.2469 14.6979C10.2521 15.777 9.42325 17.5232 9.1157 18.2009C9.02708 18.3937 8.86549 18.5345 8.6622 18.6023C8.22433 18.743 7.63529 18.743 7.19742 18.6023C6.99934 18.5397 6.83775 18.399 6.74913 18.2113C6.43637 17.5441 5.58669 15.7926 5.58148 14.7136C5.58148 14.7136 5.15404 11.956 5.86818 11.7371C6.37381 11.5859 7.187 13.2279 7.29646 13.4573C7.69784 13.4104 8.1305 13.4104 8.53709 13.4573C8.64656 13.2279 9.45974 11.5859 9.96537 11.7371C10.6743 11.9508 10.2469 14.6979 10.2469 14.6979Z" stroke="#1B2120" stroke-width="0.5" stroke-linecap="round" stroke-linejoin="round"/>
<path d="M8.10968 17.3199H7.69788" stroke="#1B2120" stroke-width="0.5" stroke-linecap="round" stroke-linejoin="round"/>
<path d="M7.91162 17.3199V18.6127" stroke="#1B2120" stroke-width="0.5" stroke-linecap="round" stroke-linejoin="round"/>
<path d="M17.8887 15.6832C17.8939 15.7249 17.8939 15.7718 17.8939 15.8135C17.8939 17.1323 16.7419 18.6336 15.324 18.6336C13.9062 18.6336 12.7542 17.1271 12.7542 15.8135C12.7542 15.7718 12.7594 15.7249 12.7594 15.6832C12.6812 15.4955 11.8993 13.5512 12.3997 13.228C12.7646 12.9882 13.6507 13.744 14.146 14.2184C14.5004 14.0881 14.8966 14.0151 15.3188 14.0151C15.741 14.0151 16.1424 14.0881 16.4917 14.2184C16.9869 13.744 17.873 12.9882 18.2379 13.228C18.7488 13.5512 17.9669 15.4955 17.8887 15.6832Z" stroke="#1B2120" stroke-width="0.5" stroke-linecap="round" stroke-linejoin="round"/>
<path d="M12.9679 16.8247L12.1078 16.9498" stroke="#1B2120" stroke-width="0.5" stroke-linecap="round" stroke-linejoin="round"/>
<path d="M13.4943 17.7004L12.874 18.1644" stroke="#1B2120" stroke-width="0.5" stroke-linecap="round" stroke-linejoin="round"/>
<path d="M17.6907 16.8247L18.5456 16.9446" stroke="#1B2120" stroke-width="0.5" stroke-linecap="round" stroke-linejoin="round"/>
<path d="M17.1589 17.6952L17.7845 18.1643" stroke="#1B2120" stroke-width="0.5" stroke-linecap="round" stroke-linejoin="round"/>
</g>
<defs>
<clipPath id="clip0_42_401">
<rect width="24" height="24" fill="white"/>
</clipPath>
</defs>
</svg>
