<svg width="24" height="24" viewBox="0 0 24 24" fill="none" xmlns="http://www.w3.org/2000/svg">
<g clip-path="url(#clip0_26_1548)">
<path d="M2.93399 9.54544V21.5454" stroke="#1B2120" stroke-width="0.5" stroke-linecap="round" stroke-linejoin="round"/>
<path d="M21.0379 9.54544V21.5454" stroke="#1B2120" stroke-width="0.5" stroke-linecap="round" stroke-linejoin="round"/>
<path d="M0 11.3255L12 3L24 11.3255" stroke="#2989FB" stroke-width="0.5" stroke-linecap="round" stroke-linejoin="round"/>
<path d="M0 10.3255L12 2L24 10.3255" stroke="#2989FB" stroke-width="0.5" stroke-linecap="round" stroke-linejoin="round"/>
<path d="M10.2468 14.6979C10.252 15.7769 9.42322 17.5232 9.11567 18.2008C9.02705 18.3937 8.86546 18.5345 8.66216 18.6022C8.2243 18.743 7.63526 18.743 7.19739 18.6022C6.99931 18.5397 6.83772 18.3989 6.7491 18.2113C6.43634 17.544 5.58666 15.7926 5.58145 14.7135C5.58145 14.7135 5.15401 11.956 5.86815 11.7371C6.37378 11.5859 7.18697 13.2279 7.29643 13.4573C7.69781 13.4104 8.13047 13.4104 8.53706 13.4573C8.64653 13.2279 9.45971 11.5859 9.96534 11.7371C10.6743 11.9508 10.2468 14.6979 10.2468 14.6979Z" stroke="#1B2120" stroke-width="0.5" stroke-linecap="round" stroke-linejoin="round"/>
<path d="M8.10962 17.3199H7.69781" stroke="#1B2120" stroke-width="0.5" stroke-linecap="round" stroke-linejoin="round"/>
<path d="M7.91153 17.3199V18.6127" stroke="#1B2120" stroke-width="0.5" stroke-linecap="round" stroke-linejoin="round"/>
<path d="M17.8887 15.6831C17.8939 15.7248 17.8939 15.7718 17.8939 15.8135C17.8939 17.1323 16.7419 18.6335 15.324 18.6335C13.9061 18.6335 12.7541 17.1271 12.7541 15.8135C12.7541 15.7718 12.7593 15.7248 12.7593 15.6831C12.6811 15.4955 11.8992 13.5511 12.3997 13.2279C12.7646 12.9882 13.6507 13.744 14.1459 14.2184C14.5004 14.088 14.8966 14.0151 15.3188 14.0151C15.741 14.0151 16.1424 14.088 16.4916 14.2184C16.9869 13.744 17.873 12.9882 18.2379 13.2279C18.7487 13.5511 17.9668 15.4955 17.8887 15.6831Z" stroke="#1B2120" stroke-width="0.5" stroke-linecap="round" stroke-linejoin="round"/>
<path d="M12.9679 16.8247L12.1078 16.9498" stroke="#1B2120" stroke-width="0.5" stroke-linecap="round" stroke-linejoin="round"/>
<path d="M13.4943 17.7004L12.874 18.1644" stroke="#1B2120" stroke-width="0.5" stroke-linecap="round" stroke-linejoin="round"/>
<path d="M17.6906 16.8247L18.5455 16.9446" stroke="#1B2120" stroke-width="0.5" stroke-linecap="round" stroke-linejoin="round"/>
<path d="M17.1589 17.6952L17.7844 18.1644" stroke="#1B2120" stroke-width="0.5" stroke-linecap="round" stroke-linejoin="round"/>
</g>
<defs>
<clipPath id="clip0_26_1548">
<rect width="24" height="24" fill="white"/>
</clipPath>
</defs>
</svg>
