<svg width="24" height="24" viewBox="0 0 24 24" fill="none" xmlns="http://www.w3.org/2000/svg">
<g clip-path="url(#clip0_26_821)">
<rect x="0.25" y="0.25" width="23.5" height="23.5" stroke="#1B2120" stroke-width="0.5"/>
<path d="M15 2H22V22H2V2H9" stroke="#1B2120" stroke-width="0.5"/>
<path fill-rule="evenodd" clip-rule="evenodd" d="M13.8949 1.80564C13.9114 2.76652 13.9357 4.17829 11.949 5.13437C9.96235 4.17833 9.98665 2.76662 10.0032 1.80565C10.0046 1.72227 10.006 1.64229 10.006 1.56629C10.6288 1.47683 11.949 1 11.949 1C11.949 1 13.2694 1.47672 13.8921 1.56641C13.8921 1.64237 13.8935 1.72231 13.8949 1.80564ZM13.0695 2.61204C13.167 2.51426 13.1668 2.35597 13.069 2.25849C12.9712 2.16101 12.8129 2.16126 12.7154 2.25905L11.6633 3.31466L11.3219 2.97332C11.2243 2.87569 11.066 2.87569 10.9684 2.97332C10.8707 3.07095 10.8707 3.22925 10.9684 3.32688L11.4868 3.84527C11.4868 3.84527 11.4868 3.84528 11.6635 3.6685L11.4868 3.84527C11.5337 3.8922 11.5974 3.91856 11.6638 3.9185C11.7301 3.91845 11.7938 3.892 11.8406 3.84498L13.0695 2.61204Z" fill="#2989FB"/>
<path d="M8.46474 14.5827V19.92H6.45612C6.14913 19.4332 7.1052 18.9595 7.1052 18.9595L6.98678 13.1705" stroke="#1B2120" stroke-width="0.5" stroke-linecap="round" stroke-linejoin="round"/>
<path d="M8.46912 14.5827V19.92H10.4777C10.7847 19.4332 9.82866 18.9595 9.82866 18.9595L9.94707 13.1705" stroke="#1B2120" stroke-width="0.5" stroke-linecap="round" stroke-linejoin="round"/>
<path d="M8.46913 8.1972H9.08312C9.22785 8.1972 9.34626 8.07879 9.34626 7.93406V6.87274C9.34626 6.39032 8.95155 6 8.47352 6C7.99548 6 7.60078 6.39471 7.60078 6.87274V7.32446C7.59639 7.80688 7.98671 8.1972 8.46913 8.1972Z" stroke="#1B2120" stroke-width="0.5" stroke-linecap="round" stroke-linejoin="round"/>
<path d="M6.98679 10.583V13.1705H9.94709V10.583" stroke="#1B2120" stroke-width="0.5" stroke-linecap="round" stroke-linejoin="round"/>
<path d="M8.46911 9.0524C8.04809 9.0524 7.62707 9.07871 7.21043 9.12695C6.5175 9.2059 6 9.79796 6 10.4909V14.0389C6 14.0389 6.98677 14.1573 6.98677 13.0696V10.5874" stroke="#1B2120" stroke-width="0.5" stroke-linecap="round" stroke-linejoin="round"/>
<path d="M8.46912 9.0524C8.89014 9.0524 9.31116 9.07871 9.72779 9.12695C10.4163 9.2059 10.9338 9.79796 10.9338 10.4909V14.0389C10.9338 14.0389 9.94707 14.1573 9.94707 13.0696V10.5874" stroke="#1B2120" stroke-width="0.5" stroke-linecap="round" stroke-linejoin="round"/>
<path d="M15.3986 14.5827V19.92H13.39C13.083 19.4332 14.0391 18.9595 14.0391 18.9595L13.9207 13.1705" stroke="#1B2120" stroke-width="0.5" stroke-linecap="round" stroke-linejoin="round"/>
<path d="M15.403 14.5827V19.92H17.4116C17.7186 19.4332 16.7625 18.9595 16.7625 18.9595L16.8809 13.1705" stroke="#1B2120" stroke-width="0.5" stroke-linecap="round" stroke-linejoin="round"/>
<path d="M15.403 8.1972H16.017C16.1617 8.1972 16.2801 8.07879 16.2801 7.93406V6.87274C16.2801 6.39032 15.8854 6 15.4074 6C14.9293 6 14.5346 6.39471 14.5346 6.87274V7.32446C14.5302 7.80688 14.9205 8.1972 15.403 8.1972Z" stroke="#1B2120" stroke-width="0.5" stroke-linecap="round" stroke-linejoin="round"/>
<path d="M13.9207 10.583V13.1705H16.881V10.583" stroke="#1B2120" stroke-width="0.5" stroke-linecap="round" stroke-linejoin="round"/>
<path d="M15.403 9.0524C14.982 9.0524 14.5609 9.07871 14.1443 9.12695C13.4514 9.2059 12.9339 9.79796 12.9339 10.4909V14.0389C12.9339 14.0389 13.9206 14.1573 13.9206 13.0696V10.5874" stroke="#1B2120" stroke-width="0.5" stroke-linecap="round" stroke-linejoin="round"/>
<path d="M15.403 9.0524C15.824 9.0524 16.245 9.07871 16.6617 9.12695C17.3502 9.2059 17.8677 9.79796 17.8677 10.4909V14.0389C17.8677 14.0389 16.8809 14.1573 16.8809 13.0696V10.5874" stroke="#1B2120" stroke-width="0.5" stroke-linecap="round" stroke-linejoin="round"/>
</g>
<defs>
<clipPath id="clip0_26_821">
<rect width="24" height="24" fill="white"/>
</clipPath>
</defs>
</svg>
