<svg width="26" height="24" viewBox="0 0 26 24" fill="none" xmlns="http://www.w3.org/2000/svg">
<path d="M12.3548 4H25V19.4839H12.3548M13.3871 5.29032H23.7097V18.1935H13.3871" stroke="#1B2120" stroke-width="0.5"/>
<path d="M5.63819 10.5153L5.94671 10.9769L7.62326 11.7629C8.42192 11.8346 8.45851 11.0391 8.45851 11.0391L6.56845 10.1552L5.54856 8.51249L5.49417 8.42474" stroke="#1B2120" stroke-width="0.5" stroke-linecap="round" stroke-linejoin="round"/>
<path d="M4.57734 5.09293H4.73848C4.92581 5.09293 5.10575 5.16756 5.23802 5.30037C5.37063 5.43317 5.44516 5.61304 5.44516 5.80064V6.86676C5.44516 6.9229 5.423 6.9767 5.38305 7.01637C5.34344 7.05604 5.28972 7.07857 5.23332 7.07857H4.57701C4.38968 7.07857 4.20974 7.00393 4.07713 6.87113C3.94452 6.73833 3.87033 6.55845 3.87033 6.37085V5.7993C3.87033 5.61169 3.94519 5.43216 4.0778 5.29969C4.21041 5.16723 4.38968 5.09293 4.57701 5.09293H4.57734Z" stroke="#1B2120" stroke-width="0.5" stroke-linecap="round" stroke-linejoin="round"/>
<path d="M3.48998 11.4883L3.20093 13.8185L1 16.0301L2.30559 17.3383C2.74705 17.2307 2.47814 16.3028 2.47814 16.3028L4.33396 14.5693L4.74924 13.5882" stroke="#1B2120" stroke-width="0.5" stroke-linecap="round" stroke-linejoin="round"/>
<path d="M3.48999 11.4883L5.30955 14.5222L5.34312 17.6779H7.15161C7.43898 17.2475 6.55203 16.7997 6.55203 16.7997L6.68631 14.2717L5.63822 11.4883" stroke="#1B2120" stroke-width="0.5" stroke-linecap="round" stroke-linejoin="round"/>
<path d="M3.48999 9.77665V11.4883H5.63855V8.94319C5.63855 8.79526 5.60834 8.64868 5.54925 8.51285C5.48211 8.35887 5.38005 8.22237 5.2508 8.11478C5.12155 8.00719 4.96914 7.93155 4.80565 7.89389C4.64216 7.85624 4.47195 7.85724 4.30879 7.89725C4.14564 7.93726 3.99423 8.01493 3.86666 8.12419L3.86129 8.1289" stroke="#1B2120" stroke-width="0.5" stroke-linecap="round" stroke-linejoin="round"/>
<path d="M3.89352 8.10367L2.19951 9.4485L1.32867 11.0855C1.21554 11.8803 2.04106 11.9933 2.04106 11.9933L3.02067 10.1488L4.39373 9.06186" stroke="#1B2120" stroke-width="0.5" stroke-linecap="round" stroke-linejoin="round"/>
<path d="M17.2723 11.5801C17.5509 11.8587 17.8074 12.1153 17.8074 12.1153C17.8074 12.1153 18.5502 11.37 19.076 10.8425" stroke="#2989FB" stroke-width="0.5" stroke-linecap="round" stroke-linejoin="round"/>
<path d="M18.1021 13.6284C20.3307 12.5559 20.1078 10.9279 20.1078 9.94534C19.465 9.85275 18.1021 9.36066 18.1021 9.36066C18.1021 9.36066 16.7393 9.85287 16.0964 9.94522C16.0964 10.9279 15.8734 12.5559 18.1021 13.6284Z" stroke="#1B2120" stroke-width="0.5" stroke-linecap="round" stroke-linejoin="round"/>
<path d="M12.3559 10.4276L13.6459 11.7273L12.3559 13.0174" stroke="#2989FB" stroke-width="0.5" stroke-linecap="round" stroke-linejoin="round"/>
<path d="M13.4229 11.7273H9.6886" stroke="#2989FB" stroke-width="0.5" stroke-linecap="round" stroke-linejoin="round"/>
</svg>
