<svg width="24" height="24" viewBox="0 0 24 24" fill="none" xmlns="http://www.w3.org/2000/svg">
<g clip-path="url(#clip0_42_291)">
<rect x="0.25" y="0.25" width="23.5" height="23.5" stroke="#1B2120" stroke-width="0.5"/>
<path d="M15 2H22V22H2V2H9" stroke="#1B2120" stroke-width="0.5"/>
<path fill-rule="evenodd" clip-rule="evenodd" d="M13.8949 1.80564C13.9114 2.76652 13.9357 4.17829 11.949 5.13437C9.96235 4.17833 9.98665 2.76662 10.0032 1.80565C10.0046 1.72227 10.006 1.64229 10.006 1.56629C10.6288 1.47683 11.949 1 11.949 1C11.949 1 13.2694 1.47672 13.8921 1.56641C13.8921 1.64237 13.8935 1.72231 13.8949 1.80564ZM13.0695 2.61204C13.167 2.51426 13.1668 2.35597 13.069 2.25849C12.9712 2.16101 12.8129 2.16126 12.7154 2.25905L11.9099 3.06714L11.6633 3.31466L11.3219 2.97332C11.2243 2.87569 11.066 2.87569 10.9684 2.97332C10.8707 3.07095 10.8707 3.22925 10.9684 3.32688L11.3288 3.68728L11.4437 3.80223L11.4756 3.83407L11.4839 3.84242L11.486 3.84456L11.4866 3.8451L11.4867 3.84524L11.4868 3.84527L11.4868 3.84528L11.6635 3.6685L11.4868 3.84528C11.5337 3.89222 11.5974 3.91856 11.6638 3.9185C11.7301 3.91845 11.7938 3.892 11.8406 3.84498L11.6635 3.6685L11.8406 3.84498L11.8407 3.84495L11.8407 3.84485L11.8411 3.84446L11.8427 3.8429L11.8488 3.83675L11.8725 3.81296L11.961 3.72419L12.2641 3.42011L13.0695 2.61204Z" fill="#2989FB"/>
<path d="M8.46477 14.5827V19.92H6.45615C6.14916 19.4332 7.10523 18.9596 7.10523 18.9596L6.98681 13.1705" stroke="#1B2120" stroke-width="0.5" stroke-linecap="round" stroke-linejoin="round"/>
<path d="M8.46912 14.5827V19.92H10.4777C10.7847 19.4332 9.82866 18.9596 9.82866 18.9596L9.94707 13.1705" stroke="#1B2120" stroke-width="0.5" stroke-linecap="round" stroke-linejoin="round"/>
<path d="M8.4691 8.1972H9.08309C9.22781 8.1972 9.34623 8.07879 9.34623 7.93406V6.87274C9.34623 6.39032 8.95152 6 8.47349 6C7.99545 6 7.60074 6.39471 7.60074 6.87274V7.32446C7.59636 7.80688 7.98668 8.1972 8.4691 8.1972Z" stroke="#1B2120" stroke-width="0.5" stroke-linecap="round" stroke-linejoin="round"/>
<path d="M6.98682 10.583V13.1705H9.94712V10.583" stroke="#1B2120" stroke-width="0.5" stroke-linecap="round" stroke-linejoin="round"/>
<path d="M8.46911 9.05237C8.04809 9.05237 7.62707 9.07868 7.21043 9.12692C6.5175 9.20587 6 9.79793 6 10.4909V14.0388C6 14.0388 6.98677 14.1572 6.98677 13.0696V10.5873" stroke="#1B2120" stroke-width="0.5" stroke-linecap="round" stroke-linejoin="round"/>
<path d="M8.46912 9.05237C8.89014 9.05237 9.31116 9.07868 9.72779 9.12692C10.4163 9.20587 10.9338 9.79793 10.9338 10.4909V14.0388C10.9338 14.0388 9.94707 14.1572 9.94707 13.0696V10.5873" stroke="#1B2120" stroke-width="0.5" stroke-linecap="round" stroke-linejoin="round"/>
<path d="M15.3986 14.5827V19.92H13.39C13.083 19.4332 14.0391 18.9596 14.0391 18.9596L13.9207 13.1705" stroke="#1B2120" stroke-width="0.5" stroke-linecap="round" stroke-linejoin="round"/>
<path d="M15.403 14.5827V19.92H17.4116C17.7186 19.4332 16.7625 18.9596 16.7625 18.9596L16.8809 13.1705" stroke="#1B2120" stroke-width="0.5" stroke-linecap="round" stroke-linejoin="round"/>
<path d="M15.4029 8.1972H16.0169C16.1617 8.1972 16.2801 8.07879 16.2801 7.93406V6.87274C16.2801 6.39032 15.8854 6 15.4073 6C14.9293 6 14.5346 6.39471 14.5346 6.87274V7.32446C14.5302 7.80688 14.9205 8.1972 15.4029 8.1972Z" stroke="#1B2120" stroke-width="0.5" stroke-linecap="round" stroke-linejoin="round"/>
<path d="M13.9207 10.583V13.1705H16.881V10.583" stroke="#1B2120" stroke-width="0.5" stroke-linecap="round" stroke-linejoin="round"/>
<path d="M15.4029 9.05237C14.9819 9.05237 14.5609 9.07868 14.1443 9.12692C13.4513 9.20587 12.9338 9.79793 12.9338 10.4909V14.0388C12.9338 14.0388 13.9206 14.1572 13.9206 13.0696V10.5873" stroke="#1B2120" stroke-width="0.5" stroke-linecap="round" stroke-linejoin="round"/>
<path d="M15.403 9.05237C15.824 9.05237 16.245 9.07868 16.6616 9.12692C17.3502 9.20587 17.8677 9.79793 17.8677 10.4909V14.0388C17.8677 14.0388 16.8809 14.1572 16.8809 13.0696V10.5873" stroke="#1B2120" stroke-width="0.5" stroke-linecap="round" stroke-linejoin="round"/>
</g>
<defs>
<clipPath id="clip0_42_291">
<rect width="24" height="24" fill="white"/>
</clipPath>
</defs>
</svg>
