<?xml version="1.0" standalone="no"?>
<!DOCTYPE svg PUBLIC "-//W3C//DTD SVG 20010904//EN"
 "http://www.w3.org/TR/2001/REC-SVG-20010904/DTD/svg10.dtd">
<svg version="1.0" xmlns="http://www.w3.org/2000/svg"
 width="185.000000pt" height="185.000000pt" viewBox="0 0 185.000000 185.000000"
 preserveAspectRatio="xMidYMid meet">
<metadata>
Created by potrace 1.14, written by Peter Selinger 2001-2017
</metadata>
<g transform="translate(0.000000,185.000000) scale(0.100000,-0.100000)"
fill="#000000" stroke="none">
<path d="M570 1750 c-14 -4 -40 -14 -57 -23 -18 -10 -49 -17 -70 -17 -37 0
-39 -2 -56 -50 -16 -44 -16 -53 -3 -78 12 -23 13 -46 6 -123 -12 -125 -25
-538 -24 -774 0 -246 19 -362 66 -413 28 -30 95 -65 108 -57 10 6 50 -74 50
-100 0 -30 55 -32 250 -10 235 27 565 76 575 86 5 5 13 47 17 92 10 122 9
1271 -2 1351 -13 101 -14 102 -182 98 -102 -2 -145 1 -156 10 -25 21 -271 22
-354 2 -60 -15 -71 -15 -105 -2 -23 9 -48 12 -63 8z"/>
</g>
</svg>
